HIERARCHY
ROOT Hips
{
  OFFSET 5.80788e-005 67.184 3.4734
  CHANNELS 6 Xposition Yposition Zposition Zrotation Xrotation Yrotation
  JOINT Chest
  {
    OFFSET 0 8.7983 -4.7612
    CHANNELS 3 Zrotation Xrotation Yrotation
    JOINT Chest2
    {
      OFFSET 0 8.0291 0.4195
      CHANNELS 3 Zrotation Xrotation Yrotation
      JOINT Chest3
      {
        OFFSET 0 9.9351 -2.2114
        CHANNELS 3 Zrotation Xrotation Yrotation
        JOINT Neck
        {
          OFFSET 0 22.3885 -0.4656
          CHANNELS 3 Zrotation Xrotation Yrotation
          JOINT Head
          {
            OFFSET -0.0001 12.643 3.4389
            CHANNELS 3 Zrotation Xrotation Yrotation
            End Site
            {
              OFFSET 0.0001 17.6655 0.5274
            }
          }
        }
        JOINT LeftCollar
        {
          OFFSET 2.2603 21.606 7.4023
          CHANNELS 3 Zrotation Xrotation Yrotation
          JOINT LeftShoulder
          {
            OFFSET 13.5163 -1.1332 -5.0146
            CHANNELS 3 Zrotation Xrotation Yrotation
            JOINT LeftElbow
            {
              OFFSET -0.0995 -28.05 -0.2431
              CHANNELS 3 Zrotation Xrotation Yrotation
              JOINT LeftWrist
              {
                OFFSET 0.0679 -23.3996 -0.1402
                CHANNELS 3 Zrotation Xrotation Yrotation
                JOINT LeftFinger1
                {
                  OFFSET 0.7932 -9.069 2.5189
                  CHANNELS 3 Zrotation Xrotation Yrotation
                  JOINT LeftFinger11
                  {
                    OFFSET -0.8272 -3.3923 0.5977
                    CHANNELS 3 Zrotation Xrotation Yrotation
                    JOINT LeftFinger12
                    {
                      OFFSET -0.5649 -2.3158 0.4082
                      CHANNELS 3 Zrotation Xrotation Yrotation
                      End Site
                      {
                        OFFSET -0.4919 -1.6479 0.2673
                      }
                    }
                  }
                }
                JOINT LeftFinger2
                {
                  OFFSET 0.9159 -9.2044 0.2193
                  CHANNELS 3 Zrotation Xrotation Yrotation
                  JOINT LeftFinger21
                  {
                    OFFSET 0.0117 -4.1944 -0.0248
                    CHANNELS 3 Zrotation Xrotation Yrotation
                    JOINT LeftFinger22
                    {
                      OFFSET 0.0071 -2.3249 -0.0142
                      CHANNELS 3 Zrotation Xrotation Yrotation
                      End Site
                      {
                        OFFSET -0.1475 -2.0882 0.0028
                      }
                    }
                  }
                }
                JOINT LeftFinger3
                {
                  OFFSET 0.6113 -8.7231 -2.0637
                  CHANNELS 3 Zrotation Xrotation Yrotation
                  JOINT LeftFinger31
                  {
                    OFFSET -0.1927 -3.8059 -0.2383
                    CHANNELS 3 Zrotation Xrotation Yrotation
                    JOINT LeftFinger32
                    {
                      OFFSET -0.1091 -2.1688 -0.1362
                      CHANNELS 3 Zrotation Xrotation Yrotation
                      End Site
                      {
                        OFFSET -0.2358 -1.9176 -0.0906
                      }
                    }
                  }
                }
                JOINT LeftFinger4
                {
                  OFFSET -0.6151 -8.0947 -3.5641
                  CHANNELS 3 Zrotation Xrotation Yrotation
                  JOINT LeftFinger41
                  {
                    OFFSET -0.4882 -2.341 -0.6462
                    CHANNELS 3 Zrotation Xrotation Yrotation
                    JOINT LeftFinger42
                    {
                      OFFSET -0.3575 -1.7167 -0.4742
                      CHANNELS 3 Zrotation Xrotation Yrotation
                      End Site
                      {
                        OFFSET -0.4187 -1.5237 -0.3496
                      }
                    }
                  }
                }
                JOINT LeftFinger0
                {
                  OFFSET -1.42 -1.8761 1.4223
                  CHANNELS 3 Zrotation Xrotation Yrotation
                  JOINT LeftFinger01
                  {
                    OFFSET -1.1471 -3.4929 2.6334
                    CHANNELS 3 Zrotation Xrotation Yrotation
                    JOINT LeftFinger02
                    {
                      OFFSET -0.823 -2.3 1.6571
                      CHANNELS 3 Zrotation Xrotation Yrotation
                      End Site
                      {
                        OFFSET -0.5822 -1.6914 1.1582
                      }
                    }
                  }
                }
              }
            }
          }
        }
        JOINT RightCollar
        {
          OFFSET -2.2603 21.606 7.4023
          CHANNELS 3 Zrotation Xrotation Yrotation
          JOINT RightShoulder
          {
            OFFSET -13.5187 -1.1334 -5.0155
            CHANNELS 3 Zrotation Xrotation Yrotation
            JOINT RightElbow
            {
              OFFSET 0.0994 -28.0499 -0.2431
              CHANNELS 3 Zrotation Xrotation Yrotation
              JOINT RightWrist
              {
                OFFSET -0.0679 -23.3996 -0.1402
                CHANNELS 3 Zrotation Xrotation Yrotation
                JOINT RightFinger1
                {
                  OFFSET -0.7932 -9.0691 2.5189
                  CHANNELS 3 Zrotation Xrotation Yrotation
                  JOINT RightFinger11
                  {
                    OFFSET 0.8272 -3.3923 0.5977
                    CHANNELS 3 Zrotation Xrotation Yrotation
                    JOINT RightFinger12
                    {
                      OFFSET 0.565 -2.3158 0.4082
                      CHANNELS 3 Zrotation Xrotation Yrotation
                      End Site
                      {
                        OFFSET 0.4919 -1.6479 0.2673
                      }
                    }
                  }
                }
                JOINT RightFinger2
                {
                  OFFSET -0.916 -9.2044 0.2193
                  CHANNELS 3 Zrotation Xrotation Yrotation
                  JOINT RightFinger21
                  {
                    OFFSET -0.0117 -4.1944 -0.0248
                    CHANNELS 3 Zrotation Xrotation Yrotation
                    JOINT RightFinger22
                    {
                      OFFSET -0.0071 -2.3249 -0.0142
                      CHANNELS 3 Zrotation Xrotation Yrotation
                      End Site
                      {
                        OFFSET 0.1475 -2.0882 0.0028
                      }
                    }
                  }
                }
                JOINT RightFinger3
                {
                  OFFSET -0.6113 -8.7231 -2.0637
                  CHANNELS 3 Zrotation Xrotation Yrotation
                  JOINT RightFinger31
                  {
                    OFFSET 0.1927 -3.8059 -0.2383
                    CHANNELS 3 Zrotation Xrotation Yrotation
                    JOINT RightFinger32
                    {
                      OFFSET 0.1091 -2.1688 -0.1362
                      CHANNELS 3 Zrotation Xrotation Yrotation
                      End Site
                      {
                        OFFSET 0.2358 -1.9176 -0.0906
                      }
                    }
                  }
                }
                JOINT RightFinger4
                {
                  OFFSET 0.6151 -8.0947 -3.564
                  CHANNELS 3 Zrotation Xrotation Yrotation
                  JOINT RightFinger41
                  {
                    OFFSET 0.4882 -2.341 -0.6462
                    CHANNELS 3 Zrotation Xrotation Yrotation
                    JOINT RightFinger42
                    {
                      OFFSET 0.3574 -1.7166 -0.4742
                      CHANNELS 3 Zrotation Xrotation Yrotation
                      End Site
                      {
                        OFFSET 0.4187 -1.5237 -0.3496
                      }
                    }
                  }
                }
                JOINT RightFinger0
                {
                  OFFSET 1.4199 -1.8761 1.4221
                  CHANNELS 3 Zrotation Xrotation Yrotation
                  JOINT RightFinger01
                  {
                    OFFSET 1.1472 -3.4929 2.6336
                    CHANNELS 3 Zrotation Xrotation Yrotation
                    JOINT RightFinger02
                    {
                      OFFSET 0.8229 -2.3 1.6571
                      CHANNELS 3 Zrotation Xrotation Yrotation
                      End Site
                      {
                        OFFSET 0.5822 -1.6914 1.1582
                      }
                    }
                  }
                }
              }
            }
          }
        }
      }
    }
  }
  JOINT RightHip
  {
    OFFSET -9.412 3.9771 -0.7758
    CHANNELS 3 Zrotation Xrotation Yrotation
    JOINT RightKnee
    {
      OFFSET -0.7531 -40.938 0
      CHANNELS 3 Zrotation Xrotation Yrotation
      JOINT RightAnkle
      {
        OFFSET 0 -40.1986 0
        CHANNELS 3 Zrotation Xrotation Yrotation
        JOINT RightToe
        {
          OFFSET 0 -4.4182 9.239
          CHANNELS 3 Zrotation Xrotation Yrotation
          End Site
          {
            OFFSET 0 0 6.1981
          }
        }
      }
    }
  }
  JOINT LeftHip
  {
    OFFSET 9.4119 3.9773 -0.7758
    CHANNELS 3 Zrotation Xrotation Yrotation
    JOINT LeftKnee
    {
      OFFSET 0.7532 -40.9383 0
      CHANNELS 3 Zrotation Xrotation Yrotation
      JOINT LeftAnkle
      {
        OFFSET 0 -40.1986 0
        CHANNELS 3 Zrotation Xrotation Yrotation
        JOINT LeftToe
        {
          OFFSET 0 -4.4182 9.239
          CHANNELS 3 Zrotation Xrotation Yrotation
          End Site
          {
            OFFSET 0 0 6.1981
          }
        }
      }
    }
  }
}
MOTION
Frames:	4
Frame Time:	0.0333333
5.80788e-005 67.184 3.4734 0 0 -0 0 0 -0 0 0 -0 0 0 -0 0 0 -0 0 0 -0 0 0 -12.5014 88.1196 14.2451 10.6914 -0.00160068 -0.00239207 0.000740045 -8.4365e-005 7.00714e-005 -9.52055e-007 9.93923e-017 -1.98785e-016 -1.59028e-015 9.93923e-017 -5.96354e-016 -1.59028e-015 -9.93923e-017 -5.96354e-016 -1.59028e-015 9.93923e-017 -1.98785e-016 -1.59028e-015 -0.0128176 0.00232552 8.52707e-005 9.93923e-017 5.96354e-016 -0 9.93923e-017 -1.98785e-016 -1.59028e-015 -0.0160551 0.00299681 0.000857156 -2.48481e-016 0 3.18055e-015 9.93923e-017 -1.98785e-016 -1.59028e-015 -0.0125865 0.0031206 0.00282719 0 1.98785e-016 -0 9.93923e-017 -1.98785e-016 -1.59028e-015 9.93923e-017 -5.96354e-016 -1.59028e-015 -9.93923e-017 -5.96354e-016 -1.59028e-015 -0.865644 0.16582 7.03859 -88.0329 10.2057 -10.5567 0.0015593 -0.00248883 -0.000788628 7.87605e-005 4.10553e-005 1.24965e-005 -3.97569e-016 -7.95139e-016 3.18055e-015 -1.98785e-016 -3.97569e-016 3.18055e-015 -1.98785e-016 0 3.18055e-015 -3.97569e-016 -7.95139e-016 3.18055e-015 0.0129473 0.00231697 -8.70038e-005 9.93923e-017 -7.95139e-016 1.59028e-015 -3.97569e-016 -7.95139e-016 3.18055e-015 0.0163314 0.00303369 -0.000872333 3.97569e-016 7.95139e-016 -3.18055e-015 -3.97569e-016 -7.95139e-016 3.18055e-015 0.0145763 0.00367772 -0.00326275 9.93923e-017 -3.97569e-016 -0 -3.97569e-016 -7.95139e-016 3.18055e-015 -1.98785e-016 -3.97569e-016 3.18055e-015 -1.98785e-016 0 3.18055e-015 3.42485 1.36937 -0.0640303 0.000136572 0.69354 0.00145564 -3.42573 -2.06297 -0.0607933 -3.19502e-024 0 -1.48106e-024 -3.42498 1.36123 0.0639712 -6.769e-005 0.712612 -0.0012277 3.42582 -2.07388 0.0612819 2.55305e-023 0 -2.31416e-026 
-1.83108 -2.8093 -3.34297 -13.0539 -27.4089 25.9247 0.275634 5.94317 -1.42976 0.706936 11.8774 -2.91209 0.706953 11.8775 -2.91211 7.02702 -3.84392 0.777729 17.5203 3.87922 -4.16195 13.6654 -11.8864 -4.32811 53.6775 -5.57694 -12.3065 38.5233 -74.266 20.1737 -20.5438 2.62692 52.0513 -1.59028e-015 6.36111e-015 -3.77691e-015 -2.38542e-015 3.18055e-015 -4.17448e-015 -1.59028e-015 3.18055e-015 -1.39149e-015 -1.59028e-015 6.36111e-015 -3.77691e-015 -0.0128156 0.00231676 8.54424e-005 -0 0 1.39149e-015 -1.59028e-015 6.36111e-015 -3.77691e-015 -0.0160419 0.00299482 0.000858969 1.59028e-015 0 1.98785e-015 -1.59028e-015 6.36111e-015 -3.77691e-015 -0.0125572 0.00311301 0.00282446 2.38542e-015 -3.18055e-015 1.98785e-016 -1.59028e-015 6.36111e-015 -3.77691e-015 -2.38542e-015 3.18055e-015 -4.17448e-015 -1.59028e-015 3.18055e-015 -1.39149e-015 -1.40359 -8.9996 22.4125 -15.0986 -0.0104167 -10.9564 -5.85732 -63.5071 -4.5722 -1.20946 8.65466 0.830943 -9.54166e-015 4.77083e-015 -3.97569e-015 8.13084e-007 1.02588e-005 -7.10765e-006 6.36111e-015 4.77083e-015 -3.18055e-015 -9.54166e-015 4.77083e-015 -3.97569e-015 0.0129594 0.00232668 -9.09554e-005 -3.18055e-015 1.59028e-015 -3.97569e-015 -9.54166e-015 4.77083e-015 -3.97569e-015 0.016338 0.00305661 -0.00087707 -5.65443e-006 -1.06616e-005 5.94641e-006 -9.54166e-015 4.77083e-015 -3.97569e-015 0.01456 0.00368612 -0.00325591 -6.36111e-015 -6.36111e-015 5.56597e-015 -9.54166e-015 4.77083e-015 -3.97569e-015 8.13084e-007 1.02588e-005 -7.10765e-006 6.36111e-015 4.77083e-015 -3.18055e-015 65.7018 -79.6686 102.403 -176.583 55.2749 173.782 31.3489 37.5496 0.384166 1.49764e-006 3.19763e-006 -2.04204e-006 -36.0294 -72.5551 19.6577 -169.121 74.7336 171.884 -26.3618 27.0191 41.8679 -1.76556e-031 3.18055e-015 3.18055e-015 
-1.83108 -2.8093 -3.34297 -13.0539 -27.4089 25.9247 0.275634 5.94317 -1.42976 0.706936 11.8774 -2.91209 0.706953 11.8775 -2.91211 6.92415 -4.09686 0.941907 17.5204 3.87946 -4.16225 13.6654 -11.8864 -4.32811 53.6775 -5.57703 -12.3065 38.5232 -74.266 20.1736 -20.2956 2.50549 52.0119 2.47261e-006 -1.61133e-007 -1.71112e-006 1.20526e-006 3.23506e-006 -6.43364e-006 -9.01843e-007 -2.88334e-006 -1.54132e-006 2.47261e-006 -1.61133e-007 -1.71112e-006 -0.0128207 0.00232733 7.58835e-005 1.70579e-006 -1.1561e-005 -1.45304e-006 2.47261e-006 -1.61133e-007 -1.71112e-006 -0.0160197 0.00299387 0.000850198 -5.76351e-007 -1.34983e-005 -5.34546e-006 2.47261e-006 -1.61133e-007 -1.71112e-006 -0.0126019 0.00311885 0.00282194 3.26334e-006 1.21207e-006 -1.39524e-006 2.47261e-006 -1.61133e-007 -1.71112e-006 1.20526e-006 3.23506e-006 -6.43364e-006 -9.01843e-007 -2.88334e-006 -1.54132e-006 -1.40359 -8.9996 22.4125 -15.0986 -0.0105089 -10.9564 -5.85604 -63.6334 -4.59588 -1.00821 8.69083 0.843188 6.36111e-015 -7.95139e-015 8.74653e-015 -2.30572e-023 -2.07681e-007 -6.36111e-015 -2.64288e-006 -1.38218e-005 4.21919e-006 6.36111e-015 -7.95139e-015 8.74653e-015 0.0129627 0.00230769 -7.9318e-005 -1.97309e-007 -2.56841e-006 -5.12491e-006 6.36111e-015 -7.95139e-015 8.74653e-015 0.0163119 0.00301837 -0.000860937 -6.36111e-015 0 6.36111e-015 6.36111e-015 -7.95139e-015 8.74653e-015 0.0146038 0.00369314 -0.00326705 -3.49236e-006 -1.72092e-005 8.768e-006 6.36111e-015 -7.95139e-015 8.74653e-015 -2.30572e-023 -2.07681e-007 -6.36111e-015 -2.64288e-006 -1.38218e-005 4.21919e-006 65.7018 -79.6686 102.403 -176.583 55.2749 173.782 31.3489 37.5496 0.384166 1.49764e-006 3.19763e-006 -2.04204e-006 -36.0294 -72.5551 19.6577 -169.121 74.7336 171.884 -26.3618 27.0191 41.8679 1.59028e-015 0 -3.18055e-015 
-1.83108 -2.8093 -3.34297 -13.0539 -27.4089 25.9247 0.275634 5.94317 -1.42976 0.706936 11.8774 -2.91209 0.706953 11.8775 -2.91211 6.82191 -4.35028 1.10581 17.5205 3.87971 -4.16255 13.6654 -11.8864 -4.32811 53.6775 -5.57703 -12.3065 38.5231 -74.266 20.1736 -20.0473 2.3838 51.9731 7.10958e-007 -5.16889e-006 -3.42853e-007 7.95139e-016 3.18055e-015 2.38542e-015 6.74829e-007 -3.72086e-007 -4.22288e-006 7.10958e-007 -5.16889e-006 -3.42853e-007 -0.0128174 0.00231783 8.49712e-005 -2.18485e-006 -3.59958e-007 -2.65654e-006 7.10958e-007 -5.16889e-006 -3.42853e-007 -0.0160569 0.00299569 0.000855609 -3.89081e-006 -3.25038e-006 -4.50232e-006 7.10958e-007 -5.16889e-006 -3.42853e-007 -0.0125397 0.0031119 0.00282648 -4.99667e-006 1.86984e-006 -4.31613e-006 7.10958e-007 -5.16889e-006 -3.42853e-007 7.95139e-016 3.18055e-015 2.38542e-015 6.74829e-007 -3.72086e-007 -4.22288e-006 -1.40359 -8.9996 22.4125 -15.0986 -0.0105872 -10.9564 -5.85483 -63.7597 -4.61968 -0.806853 8.72705 0.855388 -5.37749e-006 -3.79266e-006 -6.19468e-006 3.18055e-015 -3.18055e-015 -0 3.18055e-015 -4.77083e-015 -3.18055e-015 -5.37749e-006 -3.79266e-006 -6.19468e-006 0.0129462 0.00232261 -9.02584e-005 6.36111e-015 0 -7.95139e-015 -5.37749e-006 -3.79266e-006 -6.19468e-006 0.0163653 0.00303517 -0.000871443 -1.67297e-006 -1.44094e-005 1.43137e-005 -5.37749e-006 -3.79266e-006 -6.19468e-006 0.0145819 0.00367803 -0.00325119 -5.00267e-006 -1.99941e-006 -3.71171e-006 -5.37749e-006 -3.79266e-006 -6.19468e-006 3.18055e-015 -3.18055e-015 -0 3.18055e-015 -4.77083e-015 -3.18055e-015 65.7018 -79.6686 102.403 -176.583 55.2749 173.782 31.3489 37.5496 0.384166 1.49764e-006 3.19763e-006 -2.04204e-006 -36.0294 -72.5551 19.6577 -169.121 74.7336 171.884 -26.3618 27.0191 41.8679 1.59028e-015 0 -3.18055e-015 
